<svg width="96" height="96" viewBox="0 0 96 96" fill="none" xmlns="http://www.w3.org/2000/svg">
  <path d="M94.6055 68.3911C93.4799 69.9031 91.6805 70.8188 89.7443 70.8188H5.86651C4.78396 70.8188 4.04489 70.5523 3.53709 70.0445C2.55894 69.0664 2.30604 67.5544 3.0451 66.3098L6.25138 61.1056C7.12196 59.6561 8.75882 58.7404 10.5582 58.7404H94.4361C95.5187 58.7404 96.2577 59.0069 96.7655 59.5147C97.7437 60.4928 97.9966 62.0048 97.2575 63.2494L94.6055 68.3911Z" fill="#e1d8c7"/>
  <path d="M94.6055 37.7807C93.4799 39.2927 91.6805 40.2084 89.7443 40.2084H5.86651C4.78396 40.2084 4.04489 39.9419 3.53709 39.4341C2.55894 38.456 2.30604 36.944 3.0451 35.6994L6.25138 30.4952C7.12196 29.0457 8.75882 28.13 10.5582 28.13H94.4361C95.5187 28.13 96.2577 28.3965 96.7655 28.9043C97.7437 29.8824 97.9966 31.3944 97.2575 32.639L94.6055 37.7807Z" fill="#e1d8c7"/>
  <path d="M89.7443 55.2846C91.6805 55.2846 93.4799 54.3689 94.6055 52.8569L97.2575 47.7152C97.9966 46.4706 97.7437 44.9586 96.7655 43.9805C96.2577 43.4727 95.5187 43.2062 94.4361 43.2062H10.5582C8.75882 43.2062 7.12196 44.1219 6.25138 45.5714L3.0451 50.7756C2.30604 52.0202 2.55894 53.5322 3.53709 54.5103C4.04489 55.0181 4.78396 55.2846 5.86651 55.2846H89.7443Z" fill="#e1d8c7"/>
</svg>

